<svg width="208" height="48" viewBox="0 0 208 48" fill="none" xmlns="http://www.w3.org/2000/svg">
<path d="M47.9999 41.2307C47.9999 40.1252 46.7867 39.4576 45.8716 40.0777V40.0777C41.1188 43.2995 39.0541 45.4291 36.9335 47.6163L36.9118 47.6372V47.6372C36.7809 47.7724 36.8766 47.9987 37.0647 47.9987H45.9999C47.1045 47.9987 47.9999 47.1033 47.9999 45.9987V41.2307Z" fill="url(#paint0_linear_88_1766)"/>
<path d="M9.30775 46.6189C8.37804 46.9878 7.43979 47.3609 6.4181 47.8183C6.15477 47.9362 5.86986 47.9993 5.58135 47.9993H2C0.89543 47.9993 0 47.1038 0 45.9993V45.3556C0 44.6189 0.403074 43.9378 1.06238 43.6091C1.67562 43.3034 2.2501 43.0379 2.80245 42.7972C3.61645 42.4415 4.38246 42.1372 5.15376 41.8309L5.1741 41.8228L5.20145 41.8123C8.03766 40.686 10.9526 39.523 16.0809 36.0497C21.209 32.5764 23.5237 30.1928 25.7729 27.8746L25.7946 27.8511C27.9152 25.6639 29.9799 23.5369 34.7327 20.3151C39.4855 17.0959 42.0895 16.0613 44.7636 15.0004L44.7913 14.9899V14.9899C44.8839 14.9525 44.9894 14.9654 45.0703 15.0242L47.1758 16.5545C47.6936 16.9309 48 17.5323 48 18.1724V18.8049C48 19.6209 47.5027 20.351 46.7522 20.6713C44.4885 21.6374 41.8814 22.9424 38.0184 25.5591C32.89 29.0324 30.5753 31.416 28.3262 33.7342L28.3044 33.7577C26.1839 35.9449 24.1191 38.0719 19.3663 41.2937C14.6136 44.5129 12.0095 45.5475 9.33537 46.6084L9.30775 46.6189Z" fill="url(#paint1_linear_88_1766)"/>
<path d="M45.2529 27.1745C46.5241 26.4962 47.9999 27.4586 47.9999 28.8994V31.5285C47.9999 32.2502 47.6097 32.9135 46.9892 33.2821C45.9678 33.8887 44.845 34.6 43.5898 35.4496C38.4614 38.9229 36.1467 41.3066 33.8976 43.6247L33.8758 43.6483C32.6674 44.8945 31.4774 46.1214 29.7976 47.5422C29.445 47.8405 28.9962 47.9991 28.5344 47.9991H22.2562C21.182 47.9991 20.7631 46.5407 21.652 45.9376V45.9376C26.7804 42.4643 29.0951 40.0833 31.3443 37.7625L31.366 37.739L31.3754 37.7293C33.4927 35.5481 35.5583 33.4201 40.3041 30.203C42.2685 28.8719 43.8659 27.9145 45.2529 27.1745Z" fill="url(#paint2_linear_88_1766)"/>
<path d="M23.5898 0.534352C24.0687 0.213344 24.697 0.225166 25.1635 0.563962L27.3365 2.14222C28.4923 2.98167 28.4245 4.73375 27.2382 5.52943C27.119 5.60937 26.9986 5.69059 26.8769 5.7731C21.7486 9.24639 19.4339 11.6274 17.1847 13.9482L17.1629 13.9691C15.0424 16.1563 12.9777 18.2858 8.22488 21.5077C5.99789 23.0153 4.24257 24.0444 2.73079 24.8214C1.45842 25.4753 0 24.5091 0 23.0785V20.5001C0 19.7695 0.399773 19.0998 1.03185 18.7333C2.18612 18.0641 3.4714 17.2593 4.93778 16.2663C6.30106 15.3443 7.4654 14.4982 8.4827 13.7098C9.6914 12.7721 10.6922 11.9155 11.572 11.1088C12.7366 10.0427 13.6889 9.06303 14.6297 8.09124L14.6515 8.07029C16.772 5.88311 18.8368 3.75356 23.5898 0.534352V0.534352Z" fill="url(#paint3_linear_88_1766)"/>
<path d="M33.2827 7.84905C33.9454 7.47581 34.7628 7.53836 35.3782 7.98526L37.2071 9.31341C38.4434 10.2112 38.264 12.1238 36.9317 12.8719C35.6312 13.6022 34.1629 14.5062 32.4467 15.669C27.3183 19.1449 25.0036 21.5259 22.7545 23.844L22.7327 23.8676C20.6122 26.0548 18.5474 28.1843 13.7946 31.4035C9.04551 34.6229 6.44179 35.6558 3.76985 36.7158L3.76367 36.7183L3.73605 36.7314L3.73326 36.7325C3.45665 36.8423 3.17931 36.9525 2.89924 37.065C1.53723 37.6125 0 36.6275 0 35.1596V33.1292C0 32.3103 0.500566 31.5777 1.25693 31.2637C3.64401 30.2727 6.34779 28.9744 10.5092 26.1569C15.6375 22.681 17.952 20.3 20.2012 17.9819L20.2229 17.9583C22.3435 15.7711 24.4082 13.6416 29.1613 10.4224C30.7468 9.34935 32.0932 8.51902 33.2827 7.84905Z" fill="url(#paint4_linear_88_1766)"/>
<path d="M204.451 32.6747C208.483 30.0107 208.627 34.7627 205.387 36.9227C203.803 38.0747 202.795 38.6507 201.139 39.1547C199.123 39.7307 197.107 39.3707 195.883 38.5067C195.091 37.9307 194.659 37.0667 194.587 36.4187C193.435 37.9307 190.555 40.1627 186.379 39.3707C181.123 38.3627 181.267 31.9547 182.419 28.9307C185.731 20.4347 191.779 18.1307 193.939 17.5547C197.827 16.5467 200.779 17.9867 201.499 18.6347C204.163 21.0107 201.931 25.4747 198.907 23.9627C197.107 23.0267 196.963 21.3707 193.507 22.8827C192.355 23.3867 189.259 25.8347 188.251 28.9307C187.675 30.6587 187.027 33.7547 189.331 34.4027C190.555 34.7627 192.427 34.4027 195.235 31.0187C196.603 29.3627 197.035 27.1307 197.467 26.5547C199.123 23.8907 203.947 26.6267 203.083 28.3547C203.011 28.5707 202.435 29.2187 201.427 30.7307C200.491 32.0267 199.987 33.8987 200.851 34.1867C201.499 34.4027 203.011 33.6107 204.451 32.6747Z" fill="#FEFDF6"/>
<path d="M179.627 33.4694C184.451 30.0134 185.531 34.3334 182.075 36.7814C179.483 38.7974 177.035 39.5894 174.515 39.3734C172.931 39.2294 171.491 38.2934 170.771 37.3574C169.259 35.2694 169.907 33.1814 171.563 30.3734C173.291 27.3494 174.731 24.9734 173.507 23.7494C171.779 22.1654 168.899 24.8294 167.531 26.3414C164.579 29.4374 163.283 31.3094 161.555 35.0534C160.403 37.2134 160.547 38.4374 159.467 38.7254C156.875 39.7334 153.995 37.3574 154.643 35.6294C154.715 35.4134 158.603 28.4294 161.051 22.2374C161.915 20.2214 161.771 19.4294 162.275 18.2054C163.067 16.6214 168.539 18.5654 167.459 21.0854C167.171 21.8054 166.955 21.9494 166.739 22.4534C170.123 18.0614 174.371 16.7654 177.827 18.7814C180.923 20.6534 180.851 23.3894 179.411 26.1974C176.675 31.5254 176.027 33.0374 176.459 33.7574C176.963 34.6214 178.187 34.3334 179.627 33.4694Z" fill="#FEFDF6"/>
<path d="M155.373 32.6747C159.405 30.0107 159.549 34.7627 156.309 36.9227C154.725 38.0747 153.717 38.6507 152.061 39.1547C150.045 39.7307 148.029 39.3707 146.805 38.5067C146.013 37.9307 145.581 37.0667 145.509 36.4187C144.357 37.9307 141.477 40.1627 137.301 39.3707C132.045 38.3627 132.189 31.9547 133.341 28.9307C136.653 20.4347 142.701 18.1307 144.861 17.5547C148.749 16.5467 151.701 17.9867 152.421 18.6347C155.085 21.0107 152.853 25.4747 149.829 23.9627C148.029 23.0267 147.885 21.3707 144.429 22.8827C143.277 23.3867 140.181 25.8347 139.173 28.9307C138.597 30.6587 137.949 33.7547 140.253 34.4027C141.477 34.7627 143.349 34.4027 146.157 31.0187C147.525 29.3627 147.957 27.1307 148.389 26.5547C150.045 23.8907 154.869 26.6267 154.005 28.3547C153.933 28.5707 153.357 29.2187 152.349 30.7307C151.413 32.0267 150.909 33.8987 151.773 34.1867C152.421 34.4027 153.933 33.6107 155.373 32.6747Z" fill="#FEFDF6"/>
<path d="M128.849 8.43356C129.342 7.79494 129.633 7.43476 130 7.03159C130.625 6.34409 130.688 5.68784 129.969 5.21909C129.344 4.81194 128.944 4.61687 128.307 4.30643C128.211 4.25945 128.109 4.20984 128 4.15644C127.25 3.78857 126.241 3.70683 124.998 4.9851C122.516 8.06019 120.064 11.6477 118.163 14.8921C117.808 15.522 117.429 16.1781 117.039 16.8551C113.237 23.451 108.296 32.0217 112.475 37.5721C113.987 39.5881 119.628 40.558 124.812 37.75C127.332 36.382 129.219 34.7502 130.907 30.6601C132.595 26.5699 130.569 23.2184 128.597 21.3437C126.625 19.4689 123.719 18.9377 122.406 20.8439C121.094 22.7502 122.344 24.7189 123.188 25.3752C123.253 25.4258 123.333 25.4848 123.425 25.552C124.519 26.3556 127.216 28.335 124.643 31.3081C121.043 35.4121 117.875 35.0521 116.939 33.1801C116.367 32.0371 116.743 30.0677 117.597 27.9865C118.879 23.9708 121.147 19.7566 123.395 16.1747C123.751 15.5654 125.915 12.0811 128.822 8.46689C128.831 8.45572 128.84 8.44461 128.849 8.43356Z" fill="#FEFDF6"/>
<path d="M109.388 32.6747C113.42 30.0107 113.564 34.7627 110.324 36.9227C108.74 38.0747 107.732 38.6507 106.076 39.1547C104.06 39.7307 102.044 39.3707 100.82 38.5067C100.028 37.9307 99.5965 37.0667 99.5245 36.4187C98.3725 37.9307 95.4925 40.1627 91.3165 39.3707C86.0605 38.3627 86.2045 31.9547 87.3565 28.9307C90.6685 20.4347 96.7165 18.1307 98.8765 17.5547C102.764 16.5467 105.716 17.9867 106.436 18.6347C109.1 21.0107 106.868 25.4747 103.844 23.9627C102.044 23.0267 101.9 21.3707 98.4445 22.8827C97.2925 23.3867 94.1965 25.8347 93.1885 28.9307C92.6125 30.6587 91.9645 33.7547 94.2685 34.4027C95.4925 34.7627 97.3645 34.4027 100.172 31.0187C101.54 29.3627 101.972 27.1307 102.404 26.5547C104.06 23.8907 108.884 26.6267 108.02 28.3547C107.948 28.5707 107.372 29.2187 106.364 30.7307C105.428 32.0267 104.924 33.8987 105.788 34.1867C106.436 34.4027 107.948 33.6107 109.388 32.6747Z" fill="#FEFDF6"/>
<path d="M87.8519 19.8606C89.0758 23.6766 84.0359 26.7006 84.0359 24.1086C83.8919 22.6686 83.0278 22.4526 81.6598 22.4526C79.1398 22.4526 76.6198 24.3966 74.9638 27.2046C73.3798 29.8686 73.3078 32.5326 74.8198 33.8286C75.8998 34.7646 79.4998 35.0526 82.5238 33.4686C85.6918 31.8126 87.2759 29.8686 87.9958 29.7246C89.0758 29.5086 90.5159 31.1646 90.0839 32.2446C89.6519 33.3246 85.9078 36.6366 82.5238 38.1486C78.7078 39.8766 72.7318 40.3086 70.2838 38.2926C67.7638 36.2766 66.3958 32.6766 69.7078 26.1966C75.2518 16.9086 82.8119 16.6206 85.4039 17.5566C86.8439 18.0606 87.4918 18.8526 87.8519 19.8606Z" fill="#FEFDF6"/>
<defs>
<linearGradient id="paint0_linear_88_1766" x1="41" y1="43.5" x2="46.5" y2="49.5" gradientUnits="userSpaceOnUse">
<stop stop-color="#E5D890"/>
<stop offset="1" stop-color="#EAE1B0"/>
</linearGradient>
<linearGradient id="paint1_linear_88_1766" x1="24" y1="31" x2="34.5" y2="44" gradientUnits="userSpaceOnUse">
<stop stop-color="#055384"/>
<stop offset="1" stop-color="#05BBB3"/>
</linearGradient>
<linearGradient id="paint2_linear_88_1766" x1="24" y1="31" x2="34.5" y2="44" gradientUnits="userSpaceOnUse">
<stop stop-color="#055384"/>
<stop offset="1" stop-color="#05BBB3"/>
</linearGradient>
<linearGradient id="paint3_linear_88_1766" x1="12" y1="10" x2="22.5" y2="24" gradientUnits="userSpaceOnUse">
<stop stop-color="#448EE4"/>
<stop offset="1" stop-color="#69D3FF"/>
</linearGradient>
<linearGradient id="paint4_linear_88_1766" x1="12" y1="10" x2="22.5" y2="24" gradientUnits="userSpaceOnUse">
<stop stop-color="#448EE4"/>
<stop offset="1" stop-color="#69D3FF"/>
</linearGradient>
</defs>
</svg>
