<svg version="1.1" viewBox="0.0 0.0 960.0 720.0" fill="none" stroke="none" stroke-linecap="square" stroke-miterlimit="10" xmlns:xlink="http://www.w3.org/1999/xlink" xmlns="http://www.w3.org/2000/svg"><clipPath id="p.0"><path d="m0 0l960.0 0l0 720.0l-960.0 0l0 -720.0z" clip-rule="nonzero"/></clipPath><g clip-path="url(#p.0)"><path fill="#000000" fill-opacity="0.0" d="m0 0l960.0 0l0 720.0l-960.0 0z" fill-rule="evenodd"/><path fill="#bca378" d="m660.7056 502.4913l0 0c63.44513 57.182648 65.85382 117.74393 5.999939 150.85489c-59.853943 33.111023 -168.81491 31.49414 -271.41602 -4.027527c-102.601105 -35.521667 -176.29121 -97.140686 -183.55815 -153.48972z" fill-rule="evenodd"/><path fill="#bca378" d="m669.64996 496.844l0 0c118.56677 33.891907 169.56812 74.37012 122.824646 97.48218c-46.74347 23.112122 -178.76471 22.693787 -317.94196 -1.0073853c-139.17725 -23.701172 -248.39026 -64.36383 -263.01373 -97.92639z" fill-rule="evenodd"/><path fill="#bca378" d="m144.27902 293.85138l0 0c18.063461 -129.16916 67.51961 -225.88593 128.42831 -251.15527c60.90869 -25.269348 123.23001 25.074024 161.83673 130.73228c38.60675 105.65825 47.13513 249.21513 22.146606 372.79022l-52.891663 -50.721344l0 0c12.314545 -105.53421 3.3755798 -221.93234 -23.260315 -302.88373c-26.635925 -80.951416 -66.64807 -113.32455 -104.117035 -84.2393c-37.46898 29.08525 -66.31674 114.9108 -75.06581 223.32977z" fill-rule="evenodd"/><path fill="#bca378" d="m163.46736 400.1226l0 0c4.5225067 -144.57994 48.051285 -269.49445 110.77553 -317.89246c62.724274 -48.39801 132.65698 -11.030373 177.97043 95.09617c45.313446 106.12654 57.34793 260.73053 30.626312 393.44873l-52.80719 -50.421936c12.997009 -111.635315 2.169098 -234.72452 -27.74524 -315.40125c-29.914337 -80.676735 -73.46741 -104.24907 -111.59955 -60.40126c-38.13211 43.84781 -63.899063 147.13068 -66.024704 264.6499z" fill-rule="evenodd"/><path fill="#bca378" d="m821.42664 293.85138l0 0c-18.063416 -129.16916 -67.51959 -225.88593 -128.42828 -251.15527c-60.90869 -25.269348 -123.22998 25.074024 -161.83673 130.73228c-38.60675 105.65825 -47.13513 249.21513 -22.146606 372.79022l52.891663 -50.721344l0 0c-12.314514 -105.53421 -3.3756104 -221.93234 23.260315 -302.88373c26.635925 -80.951416 66.64807 -113.32455 104.117004 -84.2393c37.468994 29.08525 66.31677 114.9108 75.06586 223.32977z" fill-rule="evenodd"/><path fill="#bca378" d="m802.2349 400.01346l0 0c-4.5421143 -144.56378 -48.08075 -269.44147 -110.80371 -317.80768c-62.72296 -48.366184 -132.64581 -10.979523 -177.95026 95.14723c-45.304413 106.12674 -57.334076 260.71594 -30.61493 393.422l52.80725 -50.421936c-12.996155 -111.62738 -2.1707153 -234.70786 27.739319 -315.38544c29.910034 -80.67757 73.45868 -104.26231 111.590454 -60.43431c38.131775 43.828003 63.903503 147.08844 66.03845 264.59796z" fill-rule="evenodd"/></g></svg>