<svg width="1217" height="320" viewBox="0 0 1217 320" fill="none" xmlns="http://www.w3.org/2000/svg">
<path d="M227.698 149.242C227.179 145.448 226.062 141.725 224.384 138.164C224.441 130.541 223.679 123.004 222.186 115.657C213.274 63.9593 168.118 24.5049 113.918 24.5049C80.5686 24.5049 50.6448 39.4451 30.4792 62.9802C29.3773 64.2252 28.3036 65.4958 27.2605 66.7945C13.1998 84.1327 5.57375 104.876 4.0782 125.957C3.66404 130.208 3.49787 134.473 3.57968 138.724C2.04578 142.117 1.01807 145.647 0.529778 149.244C-0.0403211 153.427 -1.22654 162.129 4.02707 169.402C4.97809 170.716 6.09016 171.915 7.34796 172.981C7.7749 175.049 8.345 178.444 8.81283 181.239C9.01735 182.463 9.20653 183.578 9.35481 184.424C9.9786 187.985 10.5768 191.199 11.1469 194.121C15.4904 216.342 18.346 221.171 20.496 224.801C20.7466 225.226 20.9894 225.632 21.2221 226.049C23.5383 230.196 27.9124 234.24 33.5342 237.436C40.9455 241.649 50.3917 244.456 61.6148 245.785C62.645 245.908 63.6855 246.319 64.7362 246.966C66.1116 250.075 67.9574 253.135 69.5808 256.098C72.4696 261.372 79.8835 266.104 82.9564 271.366C87.5786 279.28 88.2381 286.088 100.392 293.224C101.517 293.645 102.741 293.996 104.004 294.285C105.671 294.668 107.417 294.954 109.191 295.156C109.933 295.241 110.682 295.307 111.433 295.361V295.368C111.571 295.379 111.712 295.384 111.85 295.391C111.914 295.397 111.98 295.399 112.044 295.402C112.737 295.448 113.43 295.473 114.128 295.481C114.304 295.484 114.481 295.491 114.657 295.494C114.726 295.494 114.795 295.491 114.864 295.494C114.933 295.494 115.002 295.496 115.071 295.494C115.248 295.494 115.424 295.486 115.6 295.481C116.296 295.473 116.991 295.445 117.684 295.402C117.748 295.397 117.814 295.394 117.878 295.391C118.019 295.381 118.159 295.379 118.297 295.368V295.361C119.047 295.307 119.796 295.241 120.537 295.156C122.314 294.954 124.057 294.668 125.724 294.285C126.987 293.996 128.209 293.645 129.336 293.224C141.493 286.088 142.152 279.28 146.772 271.366C149.845 266.102 157.258 261.372 160.147 256.098C161.906 252.885 163.928 249.559 165.329 246.179C165.848 245.982 166.365 245.847 166.876 245.785C178.096 244.456 187.545 241.649 194.957 237.436C200.581 234.24 204.953 230.196 207.269 226.049C207.501 225.632 207.744 225.223 207.995 224.799C210.145 221.169 213 216.339 217.344 194.121C217.917 191.199 218.512 187.988 219.136 184.424C219.284 183.578 219.471 182.463 219.678 181.239C220.171 178.301 220.775 174.707 221.207 172.68C222.326 171.688 223.336 170.596 224.2 169.402C229.457 162.129 228.27 153.424 227.698 149.244V149.242ZM106.74 237.221C106.74 237.221 106.719 237.203 106.709 237.195C106.635 237.137 106.561 237.075 106.484 237.014C104.886 235.741 103.373 234.25 102.002 232.852C101.46 232.297 100.946 231.719 100.463 231.121C99.9213 230.454 99.4177 229.764 98.9575 229.048C98.0397 227.626 97.2907 226.11 96.741 224.523C96.5519 223.978 96.3882 223.426 96.2476 222.864C95.8769 221.381 95.6724 219.847 95.6724 218.27C95.6724 215.511 96.2451 212.96 97.2702 210.682C97.2907 210.633 97.3163 210.587 97.3367 210.539C97.3572 210.493 97.3802 210.444 97.4032 210.398C100.445 203.951 107.189 199.812 115.028 199.794C115.035 199.794 115.043 199.794 115.051 199.794C115.058 199.794 115.066 199.794 115.074 199.794C123.045 199.812 129.883 204.089 132.852 210.723C132.872 210.771 132.895 210.817 132.918 210.866C132.939 210.912 132.956 210.961 132.974 211.007C133.322 211.825 133.613 212.673 133.841 213.558C133.905 213.803 133.964 214.051 134.017 214.304C134.074 214.573 134.125 214.846 134.168 215.12C134.337 216.137 134.429 217.188 134.429 218.272C134.429 218.551 134.416 218.829 134.403 219.106C134.352 220.371 134.184 221.629 133.884 222.859C133.872 222.915 133.861 222.974 133.849 223.03C133.176 225.701 131.929 228.189 130.313 230.433C128.869 232.44 127.13 234.253 125.236 235.82C125.172 235.858 125.108 235.894 125.047 235.932V235.976C124.648 236.301 124.239 236.612 123.83 236.917C123.799 236.94 123.771 236.96 123.74 236.983C123.671 237.034 123.602 237.085 123.533 237.137C123.454 237.193 123.377 237.252 123.298 237.308C122.955 237.551 122.61 237.786 122.26 238.013C121.721 238.366 121.046 238.803 120.309 239.243C118.464 240.345 116.201 241.46 114.544 241.291C114.437 241.281 114.332 241.253 114.225 241.235C114.097 241.214 113.969 241.196 113.844 241.168C112.065 240.769 110.313 239.611 108.813 238.66C108.716 238.599 108.613 238.535 108.519 238.474C107.995 238.146 107.478 237.781 106.97 237.392C106.893 237.333 106.816 237.28 106.74 237.218V237.221ZM156.867 37.5354C200.885 59.286 224.891 111.38 210.567 158.887C206.995 171.874 200.606 183.816 192.208 194.121C186.183 201.512 179.124 208.059 171.317 213.538C162.208 212.443 153.708 215.414 152.278 216.725C151.223 216.012 147.7 215.007 144.105 213.903C142.633 209.833 140.094 205.85 136.063 202.442C129.986 197.304 122.723 194.443 115.406 194.443C108.089 194.443 100.407 197.306 94.3277 202.442C90.3677 205.789 87.5249 209.693 86.0293 213.686C82.0923 214.875 79.022 215.964 77.8971 216.723C76.3427 215.291 66.4107 211.899 56.4251 213.924C48.4334 208.366 41.2395 201.688 35.1013 194.118C23.0679 179.273 15.1018 161.022 13.1691 141.178C9.25766 106.249 24.1314 72.9301 49.6631 51.2689C67.6123 37.1774 90.222 28.764 114.759 28.764C129.72 28.764 143.96 31.8983 156.867 37.5328V37.5354ZM132.614 242.722C133.547 241.897 134.437 241.025 135.275 240.097C138.266 236.789 140.621 232.872 142.124 228.626C142.175 228.483 142.216 228.34 142.265 228.196C142.321 228.033 142.372 227.869 142.426 227.706C142.461 227.596 142.5 227.486 142.533 227.373C142.919 226.131 143.231 224.865 143.466 223.579C143.589 222.912 143.683 222.237 143.763 221.56C144.08 221.647 144.394 221.734 144.704 221.821C144.755 221.836 144.806 221.849 144.857 221.864C144.908 221.879 144.957 221.892 145.008 221.907C147.741 222.682 150.075 223.429 151.504 224.063C151.601 224.106 151.696 224.15 151.785 224.19C152.13 224.354 152.414 224.51 152.616 224.658C152.744 224.556 152.989 224.433 153.327 224.305C155.154 223.608 159.853 222.669 165.324 222.968C167.651 223.094 170.113 223.441 172.557 224.129C172.557 224.129 172.759 224.017 173.119 223.83C173.73 223.51 174.817 222.963 176.235 222.324C176.491 222.209 176.754 222.092 177.028 221.971C178.541 221.309 180.351 220.583 182.325 219.924C185.62 218.819 189.358 217.904 192.896 217.789C194.312 215.25 195.79 212.76 197.365 210.275C200.108 205.942 203.153 201.624 206.722 197.089C206.146 198.62 205.564 200.149 204.973 201.675C203.337 205.896 201.624 210.081 199.742 214.174C199.05 215.68 198.347 217.257 197.546 218.766C196.294 221.13 194.806 223.324 192.722 224.789C191.314 225.778 189.8 226.571 188.228 227.166C186.042 227.992 183.769 228.429 181.479 228.631C177.662 229.165 173.899 230.459 170.34 232.057C168.954 232.678 167.587 233.358 166.255 234.115C165.79 234.378 165.327 234.652 164.872 234.935C163.752 235.633 160.948 237.047 160.51 238.415C161.254 236.086 163.005 233.798 165.104 231.788C165.997 230.934 166.953 230.129 167.919 229.395C168.773 228.749 169.632 228.158 170.473 227.629C170.148 227.568 169.826 227.516 169.502 227.463C169.19 227.412 168.875 227.371 168.561 227.332C168.336 227.304 168.111 227.271 167.886 227.248C166.395 227.107 164.997 227.159 163.657 227.371C159.536 228.02 155.978 230.216 152.102 233.263C151.471 233.759 150.826 234.312 150.172 234.895C149.566 235.434 148.955 235.999 148.334 236.579C147.534 237.328 146.721 238.098 145.903 238.862C143.489 241.109 141.009 243.275 138.558 244.532C132.762 247.503 128.846 247.81 126.031 247.24C128.406 246.028 130.615 244.502 132.622 242.728L132.614 242.722Z" fill="white"/>
<path d="M393.574 125.12H353.857V100.146C353.747 100.146 460.355 100.146 460.355 100.146V125.12H420.638V225.24H393.574V125.12Z" fill="white"/>
<path d="M559.483 100.146H586.988V225.24H559.483V100.146Z" fill="white"/>
<path d="M725.935 125.12H686.218V100.146C686.108 100.146 792.717 100.146 792.717 100.146V125.12H753V225.24H725.935V125.12Z" fill="white"/>
<path d="M933.771 94.7603L1005.5 225.136H976.129L963.477 201.591H903.846L891.304 225.136H861.269L933.881 94.7603H933.771ZM951.154 178.927L933.441 145.92L915.838 178.927H951.154Z" fill="white"/>
<path d="M1098.74 100.146H1125.92L1189.4 184.642V100.146H1216.68V225.24H1189.73L1126.14 140.854V225.24H1098.63V100.146H1098.74Z" fill="white"/>
</svg>
